<svg width="313" height="128" viewBox="0 0 313 128" fill="none" xmlns="http://www.w3.org/2000/svg">
<rect width="313" height="128" rx="9" fill="url(#paint0_linear)"/>
<circle cx="78.5" cy="64.5" r="37.5" fill="white"/>
<path d="M83 86H73.9375V52.1875H83V86ZM73.4062 43.4375C73.4062 42.0833 73.8542 40.9688 74.75 40.0938C75.6667 39.2188 76.9062 38.7812 78.4688 38.7812C80.0104 38.7812 81.2396 39.2188 82.1562 40.0938C83.0729 40.9688 83.5312 42.0833 83.5312 43.4375C83.5312 44.8125 83.0625 45.9375 82.125 46.8125C81.2083 47.6875 79.9896 48.125 78.4688 48.125C76.9479 48.125 75.7188 47.6875 74.7812 46.8125C73.8646 45.9375 73.4062 44.8125 73.4062 43.4375Z" fill="#52519E"/>
<path d="M137.062 86V40.5H153C158.521 40.5 162.708 41.5625 165.562 43.6875C168.417 45.7917 169.844 48.8854 169.844 52.9688C169.844 55.1979 169.271 57.1667 168.125 58.875C166.979 60.5625 165.385 61.8021 163.344 62.5938C165.677 63.1771 167.51 64.3542 168.844 66.125C170.198 67.8958 170.875 70.0625 170.875 72.625C170.875 77 169.479 80.3125 166.688 82.5625C163.896 84.8125 159.917 85.9583 154.75 86H137.062ZM146.438 66.1875V78.4688H154.469C156.677 78.4688 158.396 77.9479 159.625 76.9062C160.875 75.8438 161.5 74.3854 161.5 72.5312C161.5 68.3646 159.344 66.25 155.031 66.1875H146.438ZM146.438 59.5625H153.375C158.104 59.4792 160.469 57.5938 160.469 53.9062C160.469 51.8438 159.865 50.3646 158.656 49.4688C157.469 48.5521 155.583 48.0938 153 48.0938H146.438V59.5625ZM186.875 86H177.812V38H186.875V86ZM192.938 68.7812C192.938 65.4271 193.583 62.4375 194.875 59.8125C196.167 57.1875 198.021 55.1562 200.438 53.7188C202.875 52.2812 205.698 51.5625 208.906 51.5625C213.469 51.5625 217.188 52.9583 220.062 55.75C222.958 58.5417 224.573 62.3333 224.906 67.125L224.969 69.4375C224.969 74.625 223.521 78.7917 220.625 81.9375C217.729 85.0625 213.844 86.625 208.969 86.625C204.094 86.625 200.198 85.0625 197.281 81.9375C194.385 78.8125 192.938 74.5625 192.938 69.1875V68.7812ZM201.969 69.4375C201.969 72.6458 202.573 75.1042 203.781 76.8125C204.99 78.5 206.719 79.3438 208.969 79.3438C211.156 79.3438 212.865 78.5104 214.094 76.8438C215.323 75.1562 215.938 72.4688 215.938 68.7812C215.938 65.6354 215.323 63.1979 214.094 61.4688C212.865 59.7396 211.135 58.875 208.906 58.875C206.698 58.875 204.99 59.7396 203.781 61.4688C202.573 63.1771 201.969 65.8333 201.969 69.4375ZM229.219 68.8438C229.219 63.6562 230.448 59.4792 232.906 56.3125C235.385 53.1458 238.719 51.5625 242.906 51.5625C246.615 51.5625 249.5 52.8333 251.562 55.375L251.938 52.1875H260.125V84.875C260.125 87.8333 259.448 90.4062 258.094 92.5938C256.76 94.7812 254.875 96.4479 252.438 97.5938C250 98.7396 247.146 99.3125 243.875 99.3125C241.396 99.3125 238.979 98.8125 236.625 97.8125C234.271 96.8333 232.49 95.5625 231.281 94L235.281 88.5C237.531 91.0208 240.26 92.2812 243.469 92.2812C245.865 92.2812 247.729 91.6354 249.062 90.3438C250.396 89.0729 251.062 87.2604 251.062 84.9062V83.0938C248.979 85.4479 246.24 86.625 242.844 86.625C238.781 86.625 235.49 85.0417 232.969 81.875C230.469 78.6875 229.219 74.4688 229.219 69.2188V68.8438ZM238.25 69.5C238.25 72.5625 238.865 74.9688 240.094 76.7188C241.323 78.4479 243.01 79.3125 245.156 79.3125C247.906 79.3125 249.875 78.2812 251.062 76.2188V62C249.854 59.9375 247.906 58.9062 245.219 58.9062C243.052 58.9062 241.344 59.7917 240.094 61.5625C238.865 63.3333 238.25 65.9792 238.25 69.5Z" fill="white"/>
<defs>
<linearGradient id="paint0_linear" x1="-49" y1="58.5" x2="410" y2="88" gradientUnits="userSpaceOnUse">
<stop stop-color="#2F2E72"/>
<stop offset="1" stop-color="#7270BF"/>
</linearGradient>
</defs>
</svg>
