<svg xmlns="http://www.w3.org/2000/svg" x="0px" y="0px"
width="44" height="44"
viewBox="0 0 226 226"
style=" fill:#000000;"><g fill="none" fill-rule="nonzero" stroke="none" stroke-width="1" stroke-linecap="butt" stroke-linejoin="miter" stroke-miterlimit="10" stroke-dasharray="" stroke-dashoffset="0" font-family="none" font-weight="none" font-size="none" text-anchor="none" style="mix-blend-mode: normal"><path d="M0,226v-226h226v226z" fill="none"></path><g fill="#7f7e7e"><path d="M24.71875,22.95313c-12.7125,0 -22.95312,10.24063 -22.95312,22.95313v137.71875c0,12.7125 10.24063,22.95313 22.95313,22.95313h176.5625c12.7125,0 22.95313,-10.24062 22.95313,-22.95312v-137.71875c0,-12.7125 -10.24062,-22.95312 -22.95312,-22.95312zM24.71875,33.54688h176.5625c6.88594,0 12.35938,5.47344 12.35938,12.35938v60.73819c0,3.17813 -2.82569,5.65 -6.00381,5.29688c-76.62813,-11.65313 -129.59619,16.59688 -150.254,80.33594c-0.70625,2.11875 -2.64913,3.70712 -5.121,3.70712h-27.54306c-6.88594,0 -12.35937,-5.47344 -12.35937,-12.35937v-137.71875c0,-6.88594 5.47344,-12.35937 12.35938,-12.35937zM63.5625,54.68954c-7.68047,0 -15.36094,2.95811 -21.1875,8.87296c-11.65313,11.65313 -11.65313,30.72118 0,42.55087c5.82656,5.82656 13.59531,8.82813 21.1875,8.82813c7.59219,0 15.36094,-3.00156 21.1875,-8.82812c11.65313,-11.65313 11.65313,-30.72118 0,-42.55087c-5.82656,-5.91484 -13.50703,-8.87296 -21.1875,-8.87296z"></path></g></g></svg>