<svg width="56" height="64" viewBox="0 0 56 64" fill="none" xmlns="http://www.w3.org/2000/svg">
<path d="M39.125 38C35.5 38 33.875 40 28 40C22 40 20.375 38 16.75 38C7.5 38 0 45.625 0 54.875V58C0 61.375 2.625 64 6 64H50C53.25 64 56 61.375 56 58V54.875C56 45.625 48.375 38 39.125 38ZM50 58H6V54.875C6 48.875 10.75 44 16.75 44C18.625 44 21.5 46 28 46C34.375 46 37.25 44 39.125 44C45.125 44 50 48.875 50 54.875V58ZM28 36C37.875 36 46 28 46 18C46 8.125 37.875 0 28 0C18 0 10 8.125 10 18C10 28 18 36 28 36ZM28 6C34.5 6 40 11.5 40 18C40 24.625 34.5 30 28 30C21.375 30 16 24.625 16 18C16 11.5 21.375 6 28 6Z" fill="#5C5ABB"/>
</svg>
