<svg width="112" height="106" viewBox="0 0 112 106" fill="none" xmlns="http://www.w3.org/2000/svg">
<rect width="112" height="106" rx="53" fill="white"/>
<path d="M67.125 59C63.5 59 61.875 61 56 61C50 61 48.375 59 44.75 59C35.5 59 28 66.625 28 75.875V79C28 82.375 30.625 85 34 85H78C81.25 85 84 82.375 84 79V75.875C84 66.625 76.375 59 67.125 59ZM78 79H34V75.875C34 69.875 38.75 65 44.75 65C46.625 65 49.5 67 56 67C62.375 67 65.25 65 67.125 65C73.125 65 78 69.875 78 75.875V79ZM56 57C65.875 57 74 49 74 39C74 29.125 65.875 21 56 21C46 21 38 29.125 38 39C38 49 46 57 56 57ZM56 27C62.5 27 68 32.5 68 39C68 45.625 62.5 51 56 51C49.375 51 44 45.625 44 39C44 32.5 49.375 27 56 27Z" fill="#5C5ABB"/>
</svg>
